# Blender v2.78 (sub 0) OBJ File: ''
# www.blender.org
mtllib cube_sky.mtl
o Cube
v 1.000000 -1.000000 -1.000000
v 1.000000 -1.000000 1.000000
v -1.000000 -1.000000 1.000000
v -1.000000 -1.000000 -1.000000
v 1.000000 1.000000 -0.999999
v 0.999999 1.000000 1.000001
v -1.000000 1.000000 1.000000
v -1.000000 1.000000 -1.000000
vn -0.5773 0.5773 0.5773
vn 0.5773 0.5773 0.5773
vn 0.5773 0.5773 -0.5773
vn -0.5773 0.5773 -0.5773
vn -0.5773 -0.5773 0.5773
vn -0.5773 -0.5773 -0.5773
vn 0.5773 -0.5773 -0.5773
vn 0.5773 -0.5773 0.5773
usemtl SkyMat
s 1
f 1//1 4//2 3//3 2//4
f 5//5 6//6 7//7 8//8
f 1//1 2//4 6//6 5//5
f 2//4 3//3 7//7 6//6
f 3//3 4//2 8//8 7//7
f 5//5 8//8 4//2 1//1
